<svg xmlns="http://www.w3.org/2000/svg" viewBox="0 0 512 512">
  <!-- Full bleed background (maskable — safe zone is central 80%) -->
  <rect width="512" height="512" fill="#09090b"/>

  <!-- Scaled-down tree centered within safe zone -->
  <circle cx="256" cy="130" r="28" fill="#f59e0b" opacity="0.9"/>
  <rect x="252" y="158" width="8" height="38" rx="4" fill="#52525b"/>
  <rect x="176" y="192" width="160" height="8" rx="4" fill="#52525b"/>
  <rect x="176" y="200" width="8" height="38" rx="4" fill="#52525b"/>
  <rect x="328" y="200" width="8" height="38" rx="4" fill="#52525b"/>
  <circle cx="180" cy="262" r="26" fill="#d97706" opacity="0.8"/>
  <circle cx="332" cy="262" r="26" fill="#d97706" opacity="0.8"/>
  <rect x="176" y="288" width="8" height="36" rx="4" fill="#52525b"/>
  <rect x="328" y="288" width="8" height="36" rx="4" fill="#52525b"/>
  <rect x="140" y="320" width="84" height="8" rx="4" fill="#52525b"/>
  <rect x="292" y="320" width="84" height="8" rx="4" fill="#52525b"/>
  <circle cx="144" cy="366" r="20" fill="#92400e" opacity="0.7"/>
  <circle cx="220" cy="366" r="20" fill="#92400e" opacity="0.7"/>
  <circle cx="296" cy="366" r="20" fill="#92400e" opacity="0.7"/>
  <circle cx="372" cy="366" r="20" fill="#92400e" opacity="0.7"/>
</svg>
